<?xml version="1.0" encoding="UTF-8" standalone="no"?>
<!DOCTYPE svg PUBLIC "-//W3C//DTD SVG 1.1//EN"
 "http://www.w3.org/Graphics/SVG/1.1/DTD/svg11.dtd">
<!-- Generated by graphviz version 2.40.1 (20161225.0304)
 -->
<!-- Title: G Pages: 1 -->
<svg width="4600pt" height="78pt"
 viewBox="0.00 0.00 4600.00 78.00" xmlns="http://www.w3.org/2000/svg" xmlns:xlink="http://www.w3.org/1999/xlink">
<g id="graph0" class="graph" transform="scale(1 1) rotate(0) translate(4 74)">
<title>G</title>
<polygon fill="#ffffff" stroke="transparent" points="-4,4 -4,-74 4596,-74 4596,4 -4,4"/>
<!-- 140645774105008 -->
<g id="node1" class="node">
<title>140645774105008</title>
<polygon fill="none" stroke="#000000" points="154,-.5 154,-69.5 383,-69.5 383,-.5 154,-.5"/>
<text text-anchor="middle" x="268.5" y="-54.3" font-family="Times,serif" font-size="14.00" fill="#000000">conv2d_1: Conv2D</text>
<polyline fill="none" stroke="#000000" points="154,-46.5 383,-46.5 "/>
<text text-anchor="middle" x="209.5" y="-31.3" font-family="Times,serif" font-size="14.00" fill="#000000">input:</text>
<polyline fill="none" stroke="#000000" points="265,-23.5 265,-46.5 "/>
<text text-anchor="middle" x="324" y="-31.3" font-family="Times,serif" font-size="14.00" fill="#000000">output:</text>
<polyline fill="none" stroke="#000000" points="154,-23.5 383,-23.5 "/>
<text text-anchor="middle" x="209.5" y="-8.3" font-family="Times,serif" font-size="14.00" fill="#000000">(None, 1, 48, 48)</text>
<polyline fill="none" stroke="#000000" points="265,-.5 265,-23.5 "/>
<text text-anchor="middle" x="324" y="-8.3" font-family="Times,serif" font-size="14.00" fill="#000000">(None, 32, 48, 48)</text>
</g>
<!-- 140645774106296 -->
<g id="node2" class="node">
<title>140645774106296</title>
<polygon fill="none" stroke="#000000" points="419,-.5 419,-69.5 655,-69.5 655,-.5 419,-.5"/>
<text text-anchor="middle" x="537" y="-54.3" font-family="Times,serif" font-size="14.00" fill="#000000">conv2d_2: Conv2D</text>
<polyline fill="none" stroke="#000000" points="419,-46.5 655,-46.5 "/>
<text text-anchor="middle" x="476" y="-31.3" font-family="Times,serif" font-size="14.00" fill="#000000">input:</text>
<polyline fill="none" stroke="#000000" points="533,-23.5 533,-46.5 "/>
<text text-anchor="middle" x="594" y="-31.3" font-family="Times,serif" font-size="14.00" fill="#000000">output:</text>
<polyline fill="none" stroke="#000000" points="419,-23.5 655,-23.5 "/>
<text text-anchor="middle" x="478" y="-8.3" font-family="Times,serif" font-size="14.00" fill="#000000">(None, 32, 48, 48)</text>
<polyline fill="none" stroke="#000000" points="537,-.5 537,-23.5 "/>
<text text-anchor="middle" x="596" y="-8.3" font-family="Times,serif" font-size="14.00" fill="#000000">(None, 32, 48, 48)</text>
</g>
<!-- 140645774105008&#45;&gt;140645774106296 -->
<g id="edge2" class="edge">
<title>140645774105008&#45;&gt;140645774106296</title>
<path fill="none" stroke="#000000" d="M383.147,-35C391.65,-35 400.2603,-35 408.8374,-35"/>
<polygon fill="#000000" stroke="#000000" points="408.8825,-38.5001 418.8825,-35 408.8824,-31.5001 408.8825,-38.5001"/>
</g>
<!-- 140645754464296 -->
<g id="node3" class="node">
<title>140645754464296</title>
<polygon fill="none" stroke="#000000" points="691,-.5 691,-69.5 927,-69.5 927,-.5 691,-.5"/>
<text text-anchor="middle" x="809" y="-54.3" font-family="Times,serif" font-size="14.00" fill="#000000">conv2d_3: Conv2D</text>
<polyline fill="none" stroke="#000000" points="691,-46.5 927,-46.5 "/>
<text text-anchor="middle" x="748" y="-31.3" font-family="Times,serif" font-size="14.00" fill="#000000">input:</text>
<polyline fill="none" stroke="#000000" points="805,-23.5 805,-46.5 "/>
<text text-anchor="middle" x="866" y="-31.3" font-family="Times,serif" font-size="14.00" fill="#000000">output:</text>
<polyline fill="none" stroke="#000000" points="691,-23.5 927,-23.5 "/>
<text text-anchor="middle" x="750" y="-8.3" font-family="Times,serif" font-size="14.00" fill="#000000">(None, 32, 48, 48)</text>
<polyline fill="none" stroke="#000000" points="809,-.5 809,-23.5 "/>
<text text-anchor="middle" x="868" y="-8.3" font-family="Times,serif" font-size="14.00" fill="#000000">(None, 32, 48, 48)</text>
</g>
<!-- 140645774106296&#45;&gt;140645754464296 -->
<g id="edge3" class="edge">
<title>140645774106296&#45;&gt;140645754464296</title>
<path fill="none" stroke="#000000" d="M655.1165,-35C663.4745,-35 671.9242,-35 680.3363,-35"/>
<polygon fill="#000000" stroke="#000000" points="680.57,-38.5001 690.57,-35 680.5699,-31.5001 680.57,-38.5001"/>
</g>
<!-- 140645754606984 -->
<g id="node4" class="node">
<title>140645754606984</title>
<polygon fill="none" stroke="#000000" points="963,-.5 963,-69.5 1199,-69.5 1199,-.5 963,-.5"/>
<text text-anchor="middle" x="1081" y="-54.3" font-family="Times,serif" font-size="14.00" fill="#000000">max_pooling2d_1: MaxPooling2D</text>
<polyline fill="none" stroke="#000000" points="963,-46.5 1199,-46.5 "/>
<text text-anchor="middle" x="1020" y="-31.3" font-family="Times,serif" font-size="14.00" fill="#000000">input:</text>
<polyline fill="none" stroke="#000000" points="1077,-23.5 1077,-46.5 "/>
<text text-anchor="middle" x="1138" y="-31.3" font-family="Times,serif" font-size="14.00" fill="#000000">output:</text>
<polyline fill="none" stroke="#000000" points="963,-23.5 1199,-23.5 "/>
<text text-anchor="middle" x="1022" y="-8.3" font-family="Times,serif" font-size="14.00" fill="#000000">(None, 32, 48, 48)</text>
<polyline fill="none" stroke="#000000" points="1081,-.5 1081,-23.5 "/>
<text text-anchor="middle" x="1140" y="-8.3" font-family="Times,serif" font-size="14.00" fill="#000000">(None, 32, 24, 24)</text>
</g>
<!-- 140645754464296&#45;&gt;140645754606984 -->
<g id="edge4" class="edge">
<title>140645754464296&#45;&gt;140645754606984</title>
<path fill="none" stroke="#000000" d="M927.1165,-35C935.4745,-35 943.9242,-35 952.3363,-35"/>
<polygon fill="#000000" stroke="#000000" points="952.57,-38.5001 962.57,-35 952.5699,-31.5001 952.57,-38.5001"/>
</g>
<!-- 140645774105904 -->
<g id="node5" class="node">
<title>140645774105904</title>
<polygon fill="none" stroke="#000000" points="1235,-.5 1235,-69.5 1471,-69.5 1471,-.5 1235,-.5"/>
<text text-anchor="middle" x="1353" y="-54.3" font-family="Times,serif" font-size="14.00" fill="#000000">conv2d_4: Conv2D</text>
<polyline fill="none" stroke="#000000" points="1235,-46.5 1471,-46.5 "/>
<text text-anchor="middle" x="1292" y="-31.3" font-family="Times,serif" font-size="14.00" fill="#000000">input:</text>
<polyline fill="none" stroke="#000000" points="1349,-23.5 1349,-46.5 "/>
<text text-anchor="middle" x="1410" y="-31.3" font-family="Times,serif" font-size="14.00" fill="#000000">output:</text>
<polyline fill="none" stroke="#000000" points="1235,-23.5 1471,-23.5 "/>
<text text-anchor="middle" x="1294" y="-8.3" font-family="Times,serif" font-size="14.00" fill="#000000">(None, 32, 24, 24)</text>
<polyline fill="none" stroke="#000000" points="1353,-.5 1353,-23.5 "/>
<text text-anchor="middle" x="1412" y="-8.3" font-family="Times,serif" font-size="14.00" fill="#000000">(None, 64, 24, 24)</text>
</g>
<!-- 140645754606984&#45;&gt;140645774105904 -->
<g id="edge5" class="edge">
<title>140645754606984&#45;&gt;140645774105904</title>
<path fill="none" stroke="#000000" d="M1199.1165,-35C1207.4745,-35 1215.9242,-35 1224.3363,-35"/>
<polygon fill="#000000" stroke="#000000" points="1224.57,-38.5001 1234.57,-35 1224.5699,-31.5001 1224.57,-38.5001"/>
</g>
<!-- 140645754213152 -->
<g id="node6" class="node">
<title>140645754213152</title>
<polygon fill="none" stroke="#000000" points="1507,-.5 1507,-69.5 1743,-69.5 1743,-.5 1507,-.5"/>
<text text-anchor="middle" x="1625" y="-54.3" font-family="Times,serif" font-size="14.00" fill="#000000">conv2d_5: Conv2D</text>
<polyline fill="none" stroke="#000000" points="1507,-46.5 1743,-46.5 "/>
<text text-anchor="middle" x="1564" y="-31.3" font-family="Times,serif" font-size="14.00" fill="#000000">input:</text>
<polyline fill="none" stroke="#000000" points="1621,-23.5 1621,-46.5 "/>
<text text-anchor="middle" x="1682" y="-31.3" font-family="Times,serif" font-size="14.00" fill="#000000">output:</text>
<polyline fill="none" stroke="#000000" points="1507,-23.5 1743,-23.5 "/>
<text text-anchor="middle" x="1566" y="-8.3" font-family="Times,serif" font-size="14.00" fill="#000000">(None, 64, 24, 24)</text>
<polyline fill="none" stroke="#000000" points="1625,-.5 1625,-23.5 "/>
<text text-anchor="middle" x="1684" y="-8.3" font-family="Times,serif" font-size="14.00" fill="#000000">(None, 64, 24, 24)</text>
</g>
<!-- 140645774105904&#45;&gt;140645754213152 -->
<g id="edge6" class="edge">
<title>140645774105904&#45;&gt;140645754213152</title>
<path fill="none" stroke="#000000" d="M1471.1165,-35C1479.4745,-35 1487.9242,-35 1496.3363,-35"/>
<polygon fill="#000000" stroke="#000000" points="1496.57,-38.5001 1506.57,-35 1496.5699,-31.5001 1496.57,-38.5001"/>
</g>
<!-- 140645754276888 -->
<g id="node7" class="node">
<title>140645754276888</title>
<polygon fill="none" stroke="#000000" points="1779,-.5 1779,-69.5 2015,-69.5 2015,-.5 1779,-.5"/>
<text text-anchor="middle" x="1897" y="-54.3" font-family="Times,serif" font-size="14.00" fill="#000000">conv2d_6: Conv2D</text>
<polyline fill="none" stroke="#000000" points="1779,-46.5 2015,-46.5 "/>
<text text-anchor="middle" x="1836" y="-31.3" font-family="Times,serif" font-size="14.00" fill="#000000">input:</text>
<polyline fill="none" stroke="#000000" points="1893,-23.5 1893,-46.5 "/>
<text text-anchor="middle" x="1954" y="-31.3" font-family="Times,serif" font-size="14.00" fill="#000000">output:</text>
<polyline fill="none" stroke="#000000" points="1779,-23.5 2015,-23.5 "/>
<text text-anchor="middle" x="1838" y="-8.3" font-family="Times,serif" font-size="14.00" fill="#000000">(None, 64, 24, 24)</text>
<polyline fill="none" stroke="#000000" points="1897,-.5 1897,-23.5 "/>
<text text-anchor="middle" x="1956" y="-8.3" font-family="Times,serif" font-size="14.00" fill="#000000">(None, 64, 24, 24)</text>
</g>
<!-- 140645754213152&#45;&gt;140645754276888 -->
<g id="edge7" class="edge">
<title>140645754213152&#45;&gt;140645754276888</title>
<path fill="none" stroke="#000000" d="M1743.1165,-35C1751.4745,-35 1759.9242,-35 1768.3363,-35"/>
<polygon fill="#000000" stroke="#000000" points="1768.57,-38.5001 1778.57,-35 1768.5699,-31.5001 1768.57,-38.5001"/>
</g>
<!-- 140645754406280 -->
<g id="node8" class="node">
<title>140645754406280</title>
<polygon fill="none" stroke="#000000" points="2051,-.5 2051,-69.5 2287,-69.5 2287,-.5 2051,-.5"/>
<text text-anchor="middle" x="2169" y="-54.3" font-family="Times,serif" font-size="14.00" fill="#000000">max_pooling2d_2: MaxPooling2D</text>
<polyline fill="none" stroke="#000000" points="2051,-46.5 2287,-46.5 "/>
<text text-anchor="middle" x="2108" y="-31.3" font-family="Times,serif" font-size="14.00" fill="#000000">input:</text>
<polyline fill="none" stroke="#000000" points="2165,-23.5 2165,-46.5 "/>
<text text-anchor="middle" x="2226" y="-31.3" font-family="Times,serif" font-size="14.00" fill="#000000">output:</text>
<polyline fill="none" stroke="#000000" points="2051,-23.5 2287,-23.5 "/>
<text text-anchor="middle" x="2110" y="-8.3" font-family="Times,serif" font-size="14.00" fill="#000000">(None, 64, 24, 24)</text>
<polyline fill="none" stroke="#000000" points="2169,-.5 2169,-23.5 "/>
<text text-anchor="middle" x="2228" y="-8.3" font-family="Times,serif" font-size="14.00" fill="#000000">(None, 64, 12, 12)</text>
</g>
<!-- 140645754276888&#45;&gt;140645754406280 -->
<g id="edge8" class="edge">
<title>140645754276888&#45;&gt;140645754406280</title>
<path fill="none" stroke="#000000" d="M2015.1165,-35C2023.4745,-35 2031.9242,-35 2040.3363,-35"/>
<polygon fill="#000000" stroke="#000000" points="2040.57,-38.5001 2050.57,-35 2040.5699,-31.5001 2040.57,-38.5001"/>
</g>
<!-- 140645754607208 -->
<g id="node9" class="node">
<title>140645754607208</title>
<polygon fill="none" stroke="#000000" points="2323,-.5 2323,-69.5 2566,-69.5 2566,-.5 2323,-.5"/>
<text text-anchor="middle" x="2444.5" y="-54.3" font-family="Times,serif" font-size="14.00" fill="#000000">conv2d_7: Conv2D</text>
<polyline fill="none" stroke="#000000" points="2323,-46.5 2566,-46.5 "/>
<text text-anchor="middle" x="2382" y="-31.3" font-family="Times,serif" font-size="14.00" fill="#000000">input:</text>
<polyline fill="none" stroke="#000000" points="2441,-23.5 2441,-46.5 "/>
<text text-anchor="middle" x="2503.5" y="-31.3" font-family="Times,serif" font-size="14.00" fill="#000000">output:</text>
<polyline fill="none" stroke="#000000" points="2323,-23.5 2566,-23.5 "/>
<text text-anchor="middle" x="2382" y="-8.3" font-family="Times,serif" font-size="14.00" fill="#000000">(None, 64, 12, 12)</text>
<polyline fill="none" stroke="#000000" points="2441,-.5 2441,-23.5 "/>
<text text-anchor="middle" x="2503.5" y="-8.3" font-family="Times,serif" font-size="14.00" fill="#000000">(None, 128, 12, 12)</text>
</g>
<!-- 140645754406280&#45;&gt;140645754607208 -->
<g id="edge9" class="edge">
<title>140645754406280&#45;&gt;140645754607208</title>
<path fill="none" stroke="#000000" d="M2287.0357,-35C2295.5383,-35 2304.1432,-35 2312.7172,-35"/>
<polygon fill="#000000" stroke="#000000" points="2312.7603,-38.5001 2322.7602,-35 2312.7602,-31.5001 2312.7603,-38.5001"/>
</g>
<!-- 140645754020640 -->
<g id="node10" class="node">
<title>140645754020640</title>
<polygon fill="none" stroke="#000000" points="2602,-.5 2602,-69.5 2852,-69.5 2852,-.5 2602,-.5"/>
<text text-anchor="middle" x="2727" y="-54.3" font-family="Times,serif" font-size="14.00" fill="#000000">conv2d_8: Conv2D</text>
<polyline fill="none" stroke="#000000" points="2602,-46.5 2852,-46.5 "/>
<text text-anchor="middle" x="2662.5" y="-31.3" font-family="Times,serif" font-size="14.00" fill="#000000">input:</text>
<polyline fill="none" stroke="#000000" points="2723,-23.5 2723,-46.5 "/>
<text text-anchor="middle" x="2787.5" y="-31.3" font-family="Times,serif" font-size="14.00" fill="#000000">output:</text>
<polyline fill="none" stroke="#000000" points="2602,-23.5 2852,-23.5 "/>
<text text-anchor="middle" x="2664.5" y="-8.3" font-family="Times,serif" font-size="14.00" fill="#000000">(None, 128, 12, 12)</text>
<polyline fill="none" stroke="#000000" points="2727,-.5 2727,-23.5 "/>
<text text-anchor="middle" x="2789.5" y="-8.3" font-family="Times,serif" font-size="14.00" fill="#000000">(None, 128, 12, 12)</text>
</g>
<!-- 140645754607208&#45;&gt;140645754020640 -->
<g id="edge10" class="edge">
<title>140645754607208&#45;&gt;140645754020640</title>
<path fill="none" stroke="#000000" d="M2566.3552,-35C2574.8345,-35 2583.4088,-35 2591.9528,-35"/>
<polygon fill="#000000" stroke="#000000" points="2591.9614,-38.5001 2601.9614,-35 2591.9613,-31.5001 2591.9614,-38.5001"/>
</g>
<!-- 140645754084208 -->
<g id="node11" class="node">
<title>140645754084208</title>
<polygon fill="none" stroke="#000000" points="2888,-.5 2888,-69.5 3138,-69.5 3138,-.5 2888,-.5"/>
<text text-anchor="middle" x="3013" y="-54.3" font-family="Times,serif" font-size="14.00" fill="#000000">conv2d_9: Conv2D</text>
<polyline fill="none" stroke="#000000" points="2888,-46.5 3138,-46.5 "/>
<text text-anchor="middle" x="2948.5" y="-31.3" font-family="Times,serif" font-size="14.00" fill="#000000">input:</text>
<polyline fill="none" stroke="#000000" points="3009,-23.5 3009,-46.5 "/>
<text text-anchor="middle" x="3073.5" y="-31.3" font-family="Times,serif" font-size="14.00" fill="#000000">output:</text>
<polyline fill="none" stroke="#000000" points="2888,-23.5 3138,-23.5 "/>
<text text-anchor="middle" x="2950.5" y="-8.3" font-family="Times,serif" font-size="14.00" fill="#000000">(None, 128, 12, 12)</text>
<polyline fill="none" stroke="#000000" points="3013,-.5 3013,-23.5 "/>
<text text-anchor="middle" x="3075.5" y="-8.3" font-family="Times,serif" font-size="14.00" fill="#000000">(None, 128, 12, 12)</text>
</g>
<!-- 140645754020640&#45;&gt;140645754084208 -->
<g id="edge11" class="edge">
<title>140645754020640&#45;&gt;140645754084208</title>
<path fill="none" stroke="#000000" d="M2852.0277,-35C2860.5624,-35 2869.184,-35 2877.768,-35"/>
<polygon fill="#000000" stroke="#000000" points="2877.8204,-38.5001 2887.8204,-35 2877.8203,-31.5001 2877.8204,-38.5001"/>
</g>
<!-- 140645753677024 -->
<g id="node12" class="node">
<title>140645753677024</title>
<polygon fill="none" stroke="#000000" points="3174,-.5 3174,-69.5 3410,-69.5 3410,-.5 3174,-.5"/>
<text text-anchor="middle" x="3292" y="-54.3" font-family="Times,serif" font-size="14.00" fill="#000000">max_pooling2d_3: MaxPooling2D</text>
<polyline fill="none" stroke="#000000" points="3174,-46.5 3410,-46.5 "/>
<text text-anchor="middle" x="3231" y="-31.3" font-family="Times,serif" font-size="14.00" fill="#000000">input:</text>
<polyline fill="none" stroke="#000000" points="3288,-23.5 3288,-46.5 "/>
<text text-anchor="middle" x="3349" y="-31.3" font-family="Times,serif" font-size="14.00" fill="#000000">output:</text>
<polyline fill="none" stroke="#000000" points="3174,-23.5 3410,-23.5 "/>
<text text-anchor="middle" x="3236.5" y="-8.3" font-family="Times,serif" font-size="14.00" fill="#000000">(None, 128, 12, 12)</text>
<polyline fill="none" stroke="#000000" points="3299,-.5 3299,-23.5 "/>
<text text-anchor="middle" x="3354.5" y="-8.3" font-family="Times,serif" font-size="14.00" fill="#000000">(None, 128, 6, 6)</text>
</g>
<!-- 140645754084208&#45;&gt;140645753677024 -->
<g id="edge12" class="edge">
<title>140645754084208&#45;&gt;140645753677024</title>
<path fill="none" stroke="#000000" d="M3138.2181,-35C3146.7559,-35 3155.3659,-35 3163.9183,-35"/>
<polygon fill="#000000" stroke="#000000" points="3163.9238,-38.5001 3173.9237,-35 3163.9237,-31.5001 3163.9238,-38.5001"/>
</g>
<!-- 140645754406504 -->
<g id="node13" class="node">
<title>140645754406504</title>
<polygon fill="none" stroke="#000000" points="3446,-.5 3446,-69.5 3646,-69.5 3646,-.5 3446,-.5"/>
<text text-anchor="middle" x="3546" y="-54.3" font-family="Times,serif" font-size="14.00" fill="#000000">flatten_1: Flatten</text>
<polyline fill="none" stroke="#000000" points="3446,-46.5 3646,-46.5 "/>
<text text-anchor="middle" x="3494" y="-31.3" font-family="Times,serif" font-size="14.00" fill="#000000">input:</text>
<polyline fill="none" stroke="#000000" points="3542,-23.5 3542,-46.5 "/>
<text text-anchor="middle" x="3594" y="-31.3" font-family="Times,serif" font-size="14.00" fill="#000000">output:</text>
<polyline fill="none" stroke="#000000" points="3446,-23.5 3646,-23.5 "/>
<text text-anchor="middle" x="3501.5" y="-8.3" font-family="Times,serif" font-size="14.00" fill="#000000">(None, 128, 6, 6)</text>
<polyline fill="none" stroke="#000000" points="3557,-.5 3557,-23.5 "/>
<text text-anchor="middle" x="3601.5" y="-8.3" font-family="Times,serif" font-size="14.00" fill="#000000">(None, 4608)</text>
</g>
<!-- 140645753677024&#45;&gt;140645754406504 -->
<g id="edge13" class="edge">
<title>140645753677024&#45;&gt;140645754406504</title>
<path fill="none" stroke="#000000" d="M3410.0769,-35C3418.5503,-35 3427.0771,-35 3435.5052,-35"/>
<polygon fill="#000000" stroke="#000000" points="3435.7265,-38.5001 3445.7264,-35 3435.7264,-31.5001 3435.7265,-38.5001"/>
</g>
<!-- 140645753752768 -->
<g id="node14" class="node">
<title>140645753752768</title>
<polygon fill="none" stroke="#000000" points="3682,-.5 3682,-69.5 3847,-69.5 3847,-.5 3682,-.5"/>
<text text-anchor="middle" x="3764.5" y="-54.3" font-family="Times,serif" font-size="14.00" fill="#000000">dense_1: Dense</text>
<polyline fill="none" stroke="#000000" points="3682,-46.5 3847,-46.5 "/>
<text text-anchor="middle" x="3721.5" y="-31.3" font-family="Times,serif" font-size="14.00" fill="#000000">input:</text>
<polyline fill="none" stroke="#000000" points="3761,-23.5 3761,-46.5 "/>
<text text-anchor="middle" x="3804" y="-31.3" font-family="Times,serif" font-size="14.00" fill="#000000">output:</text>
<polyline fill="none" stroke="#000000" points="3682,-23.5 3847,-23.5 "/>
<text text-anchor="middle" x="3726.5" y="-8.3" font-family="Times,serif" font-size="14.00" fill="#000000">(None, 4608)</text>
<polyline fill="none" stroke="#000000" points="3771,-.5 3771,-23.5 "/>
<text text-anchor="middle" x="3809" y="-8.3" font-family="Times,serif" font-size="14.00" fill="#000000">(None, 64)</text>
</g>
<!-- 140645754406504&#45;&gt;140645753752768 -->
<g id="edge14" class="edge">
<title>140645754406504&#45;&gt;140645753752768</title>
<path fill="none" stroke="#000000" d="M3646.297,-35C3654.7514,-35 3663.2778,-35 3671.6718,-35"/>
<polygon fill="#000000" stroke="#000000" points="3671.8313,-38.5001 3681.8313,-35 3671.8312,-31.5001 3671.8313,-38.5001"/>
</g>
<!-- 140645753814264 -->
<g id="node15" class="node">
<title>140645753814264</title>
<polygon fill="none" stroke="#000000" points="3883,-.5 3883,-69.5 4035,-69.5 4035,-.5 3883,-.5"/>
<text text-anchor="middle" x="3959" y="-54.3" font-family="Times,serif" font-size="14.00" fill="#000000">dropout_1: Dropout</text>
<polyline fill="none" stroke="#000000" points="3883,-46.5 4035,-46.5 "/>
<text text-anchor="middle" x="3919" y="-31.3" font-family="Times,serif" font-size="14.00" fill="#000000">input:</text>
<polyline fill="none" stroke="#000000" points="3955,-23.5 3955,-46.5 "/>
<text text-anchor="middle" x="3995" y="-31.3" font-family="Times,serif" font-size="14.00" fill="#000000">output:</text>
<polyline fill="none" stroke="#000000" points="3883,-23.5 4035,-23.5 "/>
<text text-anchor="middle" x="3921" y="-8.3" font-family="Times,serif" font-size="14.00" fill="#000000">(None, 64)</text>
<polyline fill="none" stroke="#000000" points="3959,-.5 3959,-23.5 "/>
<text text-anchor="middle" x="3997" y="-8.3" font-family="Times,serif" font-size="14.00" fill="#000000">(None, 64)</text>
</g>
<!-- 140645753752768&#45;&gt;140645753814264 -->
<g id="edge15" class="edge">
<title>140645753752768&#45;&gt;140645753814264</title>
<path fill="none" stroke="#000000" d="M3847.2675,-35C3855.6473,-35 3864.1739,-35 3872.5908,-35"/>
<polygon fill="#000000" stroke="#000000" points="3872.7859,-38.5001 3882.7858,-35 3872.7858,-31.5001 3872.7859,-38.5001"/>
</g>
<!-- 140645753814936 -->
<g id="node16" class="node">
<title>140645753814936</title>
<polygon fill="none" stroke="#000000" points="4071,-.5 4071,-69.5 4223,-69.5 4223,-.5 4071,-.5"/>
<text text-anchor="middle" x="4147" y="-54.3" font-family="Times,serif" font-size="14.00" fill="#000000">dense_2: Dense</text>
<polyline fill="none" stroke="#000000" points="4071,-46.5 4223,-46.5 "/>
<text text-anchor="middle" x="4107" y="-31.3" font-family="Times,serif" font-size="14.00" fill="#000000">input:</text>
<polyline fill="none" stroke="#000000" points="4143,-23.5 4143,-46.5 "/>
<text text-anchor="middle" x="4183" y="-31.3" font-family="Times,serif" font-size="14.00" fill="#000000">output:</text>
<polyline fill="none" stroke="#000000" points="4071,-23.5 4223,-23.5 "/>
<text text-anchor="middle" x="4109" y="-8.3" font-family="Times,serif" font-size="14.00" fill="#000000">(None, 64)</text>
<polyline fill="none" stroke="#000000" points="4147,-.5 4147,-23.5 "/>
<text text-anchor="middle" x="4185" y="-8.3" font-family="Times,serif" font-size="14.00" fill="#000000">(None, 64)</text>
</g>
<!-- 140645753814264&#45;&gt;140645753814936 -->
<g id="edge16" class="edge">
<title>140645753814264&#45;&gt;140645753814936</title>
<path fill="none" stroke="#000000" d="M4035.1958,-35C4043.5174,-35 4052.0322,-35 4060.4663,-35"/>
<polygon fill="#000000" stroke="#000000" points="4060.6958,-38.5001 4070.6957,-35 4060.6957,-31.5001 4060.6958,-38.5001"/>
</g>
<!-- 140645753888552 -->
<g id="node17" class="node">
<title>140645753888552</title>
<polygon fill="none" stroke="#000000" points="4259,-.5 4259,-69.5 4411,-69.5 4411,-.5 4259,-.5"/>
<text text-anchor="middle" x="4335" y="-54.3" font-family="Times,serif" font-size="14.00" fill="#000000">dropout_2: Dropout</text>
<polyline fill="none" stroke="#000000" points="4259,-46.5 4411,-46.5 "/>
<text text-anchor="middle" x="4295" y="-31.3" font-family="Times,serif" font-size="14.00" fill="#000000">input:</text>
<polyline fill="none" stroke="#000000" points="4331,-23.5 4331,-46.5 "/>
<text text-anchor="middle" x="4371" y="-31.3" font-family="Times,serif" font-size="14.00" fill="#000000">output:</text>
<polyline fill="none" stroke="#000000" points="4259,-23.5 4411,-23.5 "/>
<text text-anchor="middle" x="4297" y="-8.3" font-family="Times,serif" font-size="14.00" fill="#000000">(None, 64)</text>
<polyline fill="none" stroke="#000000" points="4335,-.5 4335,-23.5 "/>
<text text-anchor="middle" x="4373" y="-8.3" font-family="Times,serif" font-size="14.00" fill="#000000">(None, 64)</text>
</g>
<!-- 140645753814936&#45;&gt;140645753888552 -->
<g id="edge17" class="edge">
<title>140645753814936&#45;&gt;140645753888552</title>
<path fill="none" stroke="#000000" d="M4223.1958,-35C4231.5174,-35 4240.0322,-35 4248.4663,-35"/>
<polygon fill="#000000" stroke="#000000" points="4248.6958,-38.5001 4258.6957,-35 4248.6957,-31.5001 4248.6958,-38.5001"/>
</g>
<!-- 140645753887600 -->
<g id="node18" class="node">
<title>140645753887600</title>
<polygon fill="none" stroke="#000000" points="4447,-.5 4447,-69.5 4592,-69.5 4592,-.5 4447,-.5"/>
<text text-anchor="middle" x="4519.5" y="-54.3" font-family="Times,serif" font-size="14.00" fill="#000000">dense_3: Dense</text>
<polyline fill="none" stroke="#000000" points="4447,-46.5 4592,-46.5 "/>
<text text-anchor="middle" x="4481.5" y="-31.3" font-family="Times,serif" font-size="14.00" fill="#000000">input:</text>
<polyline fill="none" stroke="#000000" points="4516,-23.5 4516,-46.5 "/>
<text text-anchor="middle" x="4554" y="-31.3" font-family="Times,serif" font-size="14.00" fill="#000000">output:</text>
<polyline fill="none" stroke="#000000" points="4447,-23.5 4592,-23.5 "/>
<text text-anchor="middle" x="4485" y="-8.3" font-family="Times,serif" font-size="14.00" fill="#000000">(None, 64)</text>
<polyline fill="none" stroke="#000000" points="4523,-.5 4523,-23.5 "/>
<text text-anchor="middle" x="4557.5" y="-8.3" font-family="Times,serif" font-size="14.00" fill="#000000">(None, 6)</text>
</g>
<!-- 140645753888552&#45;&gt;140645753887600 -->
<g id="edge18" class="edge">
<title>140645753888552&#45;&gt;140645753887600</title>
<path fill="none" stroke="#000000" d="M4411.1084,-35C4419.5062,-35 4428.0882,-35 4436.5642,-35"/>
<polygon fill="#000000" stroke="#000000" points="4436.8311,-38.5001 4446.8311,-35 4436.831,-31.5001 4436.8311,-38.5001"/>
</g>
<!-- 140645774105064 -->
<g id="node19" class="node">
<title>140645774105064</title>
<polygon fill="none" stroke="#000000" points="0,-17 0,-53 118,-53 118,-17 0,-17"/>
<text text-anchor="middle" x="59" y="-31.3" font-family="Times,serif" font-size="14.00" fill="#000000">140645774105064</text>
</g>
<!-- 140645774105064&#45;&gt;140645774105008 -->
<g id="edge1" class="edge">
<title>140645774105064&#45;&gt;140645774105008</title>
<path fill="none" stroke="#000000" d="M118.1942,-35C126.3702,-35 135.006,-35 143.8379,-35"/>
<polygon fill="#000000" stroke="#000000" points="143.8786,-38.5001 153.8786,-35 143.8786,-31.5001 143.8786,-38.5001"/>
</g>
</g>
</svg>
