<?xml version="1.0" encoding="UTF-8" standalone="no"?>
<!DOCTYPE svg PUBLIC "-//W3C//DTD SVG 1.1//EN"
 "http://www.w3.org/Graphics/SVG/1.1/DTD/svg11.dtd">
<!-- Generated by graphviz version 2.40.1 (20161225.0304)
 -->
<!-- Title: G Pages: 1 -->
<svg width="543pt" height="78pt"
 viewBox="0.00 0.00 543.00 78.00" xmlns="http://www.w3.org/2000/svg" xmlns:xlink="http://www.w3.org/1999/xlink">
<g id="graph0" class="graph" transform="scale(1 1) rotate(0) translate(4 74)">
<title>G</title>
<polygon fill="#ffffff" stroke="transparent" points="-4,4 -4,-74 539,-74 539,4 -4,4"/>
<!-- 140645752515160 -->
<g id="node1" class="node">
<title>140645752515160</title>
<polygon fill="none" stroke="#000000" points="154,-.5 154,-69.5 347,-69.5 347,-.5 154,-.5"/>
<text text-anchor="middle" x="250.5" y="-54.3" font-family="Times,serif" font-size="14.00" fill="#000000">gru_1: GRU</text>
<polyline fill="none" stroke="#000000" points="154,-46.5 347,-46.5 "/>
<text text-anchor="middle" x="200.5" y="-31.3" font-family="Times,serif" font-size="14.00" fill="#000000">input:</text>
<polyline fill="none" stroke="#000000" points="247,-23.5 247,-46.5 "/>
<text text-anchor="middle" x="297" y="-31.3" font-family="Times,serif" font-size="14.00" fill="#000000">output:</text>
<polyline fill="none" stroke="#000000" points="154,-23.5 347,-23.5 "/>
<text text-anchor="middle" x="209" y="-8.3" font-family="Times,serif" font-size="14.00" fill="#000000">(None, 60, 4608)</text>
<polyline fill="none" stroke="#000000" points="264,-.5 264,-23.5 "/>
<text text-anchor="middle" x="305.5" y="-8.3" font-family="Times,serif" font-size="14.00" fill="#000000">(None, 256)</text>
</g>
<!-- 140645752513480 -->
<g id="node2" class="node">
<title>140645752513480</title>
<polygon fill="none" stroke="#000000" points="383,-.5 383,-69.5 535,-69.5 535,-.5 383,-.5"/>
<text text-anchor="middle" x="459" y="-54.3" font-family="Times,serif" font-size="14.00" fill="#000000">dense_1: Dense</text>
<polyline fill="none" stroke="#000000" points="383,-46.5 535,-46.5 "/>
<text text-anchor="middle" x="419" y="-31.3" font-family="Times,serif" font-size="14.00" fill="#000000">input:</text>
<polyline fill="none" stroke="#000000" points="455,-23.5 455,-46.5 "/>
<text text-anchor="middle" x="495" y="-31.3" font-family="Times,serif" font-size="14.00" fill="#000000">output:</text>
<polyline fill="none" stroke="#000000" points="383,-23.5 535,-23.5 "/>
<text text-anchor="middle" x="424.5" y="-8.3" font-family="Times,serif" font-size="14.00" fill="#000000">(None, 256)</text>
<polyline fill="none" stroke="#000000" points="466,-.5 466,-23.5 "/>
<text text-anchor="middle" x="500.5" y="-8.3" font-family="Times,serif" font-size="14.00" fill="#000000">(None, 7)</text>
</g>
<!-- 140645752515160&#45;&gt;140645752513480 -->
<g id="edge2" class="edge">
<title>140645752515160&#45;&gt;140645752513480</title>
<path fill="none" stroke="#000000" d="M347.1206,-35C355.6782,-35 364.3048,-35 372.7679,-35"/>
<polygon fill="#000000" stroke="#000000" points="372.9945,-38.5001 382.9945,-35 372.9945,-31.5001 372.9945,-38.5001"/>
</g>
<!-- 140645752515048 -->
<g id="node3" class="node">
<title>140645752515048</title>
<polygon fill="none" stroke="#000000" points="0,-17 0,-53 118,-53 118,-17 0,-17"/>
<text text-anchor="middle" x="59" y="-31.3" font-family="Times,serif" font-size="14.00" fill="#000000">140645752515048</text>
</g>
<!-- 140645752515048&#45;&gt;140645752515160 -->
<g id="edge1" class="edge">
<title>140645752515048&#45;&gt;140645752515160</title>
<path fill="none" stroke="#000000" d="M118.0189,-35C126.323,-35 135.0615,-35 143.9254,-35"/>
<polygon fill="#000000" stroke="#000000" points="143.9699,-38.5001 153.9698,-35 143.9698,-31.5001 143.9699,-38.5001"/>
</g>
</g>
</svg>
